<mxfile host="app.diagrams.net" modified="2022-05-05T19:41:57.230Z" agent="5.0 (Macintosh; Intel Mac OS X 10_15_7) AppleWebKit/537.36 (KHTML, like Gecko) Chrome/101.0.4951.54 Safari/537.36" etag="MO2PO0P-PpvLSMaJttQL" version="17.5.0" type="github">
  <diagram id="H7Io9skiyDVvk9ph6m1S" name="Page-1">
    <mxGraphModel dx="946" dy="554" grid="1" gridSize="10" guides="1" tooltips="1" connect="1" arrows="1" fold="1" page="1" pageScale="1" pageWidth="827" pageHeight="1169" math="0" shadow="0">
      <root>
        <mxCell id="0" />
        <mxCell id="1" parent="0" />
        <mxCell id="0lfdkCRC4ibczlRcjHQe-2" value="" style="shape=image;html=1;verticalAlign=top;verticalLabelPosition=bottom;labelBackgroundColor=#ffffff;imageAspect=0;aspect=fixed;image=https://cdn3.iconfinder.com/data/icons/energy-and-power-glyph-24-px/24/Factory_industry_mill_power_plant_production_unit-128.png" parent="1" vertex="1">
          <mxGeometry x="201" y="81.5" width="118" height="118" as="geometry" />
        </mxCell>
        <mxCell id="0lfdkCRC4ibczlRcjHQe-17" style="edgeStyle=orthogonalEdgeStyle;rounded=0;orthogonalLoop=1;jettySize=auto;html=1;exitX=1;exitY=0.5;exitDx=0;exitDy=0;entryX=0;entryY=0.5;entryDx=0;entryDy=0;startArrow=block;startFill=1;" parent="1" source="0lfdkCRC4ibczlRcjHQe-3" target="0lfdkCRC4ibczlRcjHQe-14" edge="1">
          <mxGeometry relative="1" as="geometry" />
        </mxCell>
        <mxCell id="0lfdkCRC4ibczlRcjHQe-19" style="edgeStyle=orthogonalEdgeStyle;rounded=0;orthogonalLoop=1;jettySize=auto;html=1;exitX=0.5;exitY=1;exitDx=0;exitDy=0;entryX=0.5;entryY=0;entryDx=0;entryDy=0;startArrow=block;startFill=1;" parent="1" source="0lfdkCRC4ibczlRcjHQe-3" target="0lfdkCRC4ibczlRcjHQe-15" edge="1">
          <mxGeometry relative="1" as="geometry" />
        </mxCell>
        <mxCell id="0lfdkCRC4ibczlRcjHQe-20" style="edgeStyle=orthogonalEdgeStyle;rounded=0;orthogonalLoop=1;jettySize=auto;html=1;exitX=0;exitY=0.5;exitDx=0;exitDy=0;entryX=1;entryY=0.5;entryDx=0;entryDy=0;startArrow=block;startFill=1;" parent="1" source="0lfdkCRC4ibczlRcjHQe-3" target="0lfdkCRC4ibczlRcjHQe-16" edge="1">
          <mxGeometry relative="1" as="geometry" />
        </mxCell>
        <mxCell id="0lfdkCRC4ibczlRcjHQe-22" style="edgeStyle=orthogonalEdgeStyle;rounded=0;orthogonalLoop=1;jettySize=auto;html=1;exitX=0.5;exitY=0;exitDx=0;exitDy=0;entryX=0.5;entryY=1;entryDx=0;entryDy=0;startArrow=block;startFill=1;" parent="1" source="0lfdkCRC4ibczlRcjHQe-3" target="0lfdkCRC4ibczlRcjHQe-12" edge="1">
          <mxGeometry relative="1" as="geometry" />
        </mxCell>
        <mxCell id="0lfdkCRC4ibczlRcjHQe-3" value="Network Admin" style="ellipse;whiteSpace=wrap;html=1;" parent="1" vertex="1">
          <mxGeometry x="358" y="219" width="120" height="80" as="geometry" />
        </mxCell>
        <mxCell id="0lfdkCRC4ibczlRcjHQe-5" value="" style="shape=image;html=1;verticalAlign=top;verticalLabelPosition=bottom;labelBackgroundColor=#ffffff;imageAspect=0;aspect=fixed;image=https://cdn3.iconfinder.com/data/icons/energy-and-power-glyph-24-px/24/Factory_industry_mill_power_plant_production_unit-128.png" parent="1" vertex="1">
          <mxGeometry x="521" y="81.5" width="118" height="118" as="geometry" />
        </mxCell>
        <mxCell id="0lfdkCRC4ibczlRcjHQe-7" value="" style="shape=image;html=1;verticalAlign=top;verticalLabelPosition=bottom;labelBackgroundColor=#ffffff;imageAspect=0;aspect=fixed;image=https://cdn3.iconfinder.com/data/icons/energy-and-power-glyph-24-px/24/Factory_industry_mill_power_plant_production_unit-128.png" parent="1" vertex="1">
          <mxGeometry x="521" y="320.5" width="118" height="118" as="geometry" />
        </mxCell>
        <mxCell id="0lfdkCRC4ibczlRcjHQe-9" value="" style="shape=image;html=1;verticalAlign=top;verticalLabelPosition=bottom;labelBackgroundColor=#ffffff;imageAspect=0;aspect=fixed;image=https://cdn3.iconfinder.com/data/icons/energy-and-power-glyph-24-px/24/Factory_industry_mill_power_plant_production_unit-128.png" parent="1" vertex="1">
          <mxGeometry x="201" y="320.5" width="118" height="118" as="geometry" />
        </mxCell>
        <mxCell id="PiR73HDYguC5GyP3yu1S-5" style="edgeStyle=orthogonalEdgeStyle;rounded=0;orthogonalLoop=1;jettySize=auto;html=1;exitX=0;exitY=0.5;exitDx=0;exitDy=0;" edge="1" parent="1" source="0lfdkCRC4ibczlRcjHQe-12" target="0lfdkCRC4ibczlRcjHQe-2">
          <mxGeometry relative="1" as="geometry" />
        </mxCell>
        <mxCell id="0lfdkCRC4ibczlRcjHQe-12" value="Site Admin" style="rounded=1;whiteSpace=wrap;html=1;" parent="1" vertex="1">
          <mxGeometry x="358" y="120" width="120" height="41" as="geometry" />
        </mxCell>
        <mxCell id="PiR73HDYguC5GyP3yu1S-7" style="edgeStyle=orthogonalEdgeStyle;rounded=0;orthogonalLoop=1;jettySize=auto;html=1;exitX=0.5;exitY=0;exitDx=0;exitDy=0;" edge="1" parent="1" source="0lfdkCRC4ibczlRcjHQe-14" target="0lfdkCRC4ibczlRcjHQe-5">
          <mxGeometry relative="1" as="geometry" />
        </mxCell>
        <mxCell id="0lfdkCRC4ibczlRcjHQe-14" value="Site Admin" style="rounded=1;whiteSpace=wrap;html=1;" parent="1" vertex="1">
          <mxGeometry x="520" y="238.5" width="120" height="41" as="geometry" />
        </mxCell>
        <mxCell id="PiR73HDYguC5GyP3yu1S-1" style="edgeStyle=orthogonalEdgeStyle;rounded=0;orthogonalLoop=1;jettySize=auto;html=1;" edge="1" parent="1" source="0lfdkCRC4ibczlRcjHQe-15" target="0lfdkCRC4ibczlRcjHQe-7">
          <mxGeometry relative="1" as="geometry" />
        </mxCell>
        <mxCell id="0lfdkCRC4ibczlRcjHQe-15" value="Site Admin" style="rounded=1;whiteSpace=wrap;html=1;" parent="1" vertex="1">
          <mxGeometry x="358" y="359" width="120" height="41" as="geometry" />
        </mxCell>
        <mxCell id="PiR73HDYguC5GyP3yu1S-2" style="edgeStyle=orthogonalEdgeStyle;rounded=0;orthogonalLoop=1;jettySize=auto;html=1;exitX=0.5;exitY=1;exitDx=0;exitDy=0;entryX=0.5;entryY=0;entryDx=0;entryDy=0;" edge="1" parent="1" source="0lfdkCRC4ibczlRcjHQe-16" target="0lfdkCRC4ibczlRcjHQe-9">
          <mxGeometry relative="1" as="geometry" />
        </mxCell>
        <mxCell id="0lfdkCRC4ibczlRcjHQe-16" value="Site Admin" style="rounded=1;whiteSpace=wrap;html=1;" parent="1" vertex="1">
          <mxGeometry x="200" y="238.5" width="120" height="41" as="geometry" />
        </mxCell>
      </root>
    </mxGraphModel>
  </diagram>
</mxfile>
